<?xml version="1.0" encoding="utf-8"?>
<!-- Generator: Adobe Illustrator 16.0.0, SVG Export Plug-In . SVG Version: 6.00 Build 0)  -->
<!DOCTYPE svg PUBLIC "-//W3C//DTD SVG 1.1//EN" "http://www.w3.org/Graphics/SVG/1.1/DTD/svg11.dtd">
<svg version="1.1" id="Layer_1" xmlns="http://www.w3.org/2000/svg" xmlns:xlink="http://www.w3.org/1999/xlink" x="0px" y="0px"
	 width="237px" height="59px" viewBox="0 0 237 59" enable-background="new 0 0 237 59" xml:space="preserve">
<path fill="#F03C3C" d="M26.512,31.978c2.242-1.392,4.58-3.986,4.58-7.544c0-6.87-6.283-8.695-14.169-8.695H0.172v34.601h17.09
	c9.103,0,15.092-2.695,15.092-10.428C32.354,36.163,30.311,32.942,26.512,31.978z M11.657,23.812h4.054
	c2.428,0,4.665,0.046,4.665,2.735c0,2.022-1.653,3.029-3.945,3.029h-4.773V23.812z M16.679,42.263h-5.022v-6.392h3.658
	c3.652,0,6.329,0.196,6.329,3.219C21.644,41.688,19.504,42.263,16.679,42.263z M37.562,21.932h10.123v-7.11H37.562V21.932z
	 M37.562,50.339h10.123V25.156H37.562V50.339z M71.533,28.473c-1.806-2.451-4.676-4.04-7.744-4.04
	c-8.373,0-11.39,6.582-11.39,12.785c0,6.44,4.037,11.919,11.095,11.919c3.658,0,5.843-1.297,7.303-2.74v2.064
	c0,3.603-1.167,4.906-4.088,4.906c-1.019,0-1.754-0.241-2.19-0.627c-0.44-0.387-0.634-0.821-0.634-1.106H53.712
	c0.488,3.704,4.286,7.259,13.293,7.259c12.561,0,13.438-5.912,13.438-13.458V25.156h-8.91V28.473z M66.511,42.219
	c-2.722-0.049-3.991-2.406-3.991-4.903c0-3.27,0.928-5.768,3.991-5.718c3.216,0,4.286,2.641,4.286,5.43
	C70.797,39.718,69.63,42.358,66.511,42.219z M113.062,31.978c2.236-1.392,4.58-3.986,4.58-7.544c0-6.87-6.283-8.695-14.175-8.695
	H86.721v34.601h17.091c9.097,0,15.092-2.695,15.092-10.428C118.903,36.163,116.854,32.942,113.062,31.978z M98.213,23.812h4.036
	c2.439,0,4.675,0.046,4.675,2.735c0,2.022-1.652,3.029-3.946,3.029h-4.766V23.812z M103.223,42.263h-5.01v-6.392h3.65
	c3.652,0,6.329,0.196,6.329,3.219C108.192,41.688,106.053,42.263,103.223,42.263z M137.25,24.433
	c-8.616,0-14.457,4.855-14.457,13.603c0,8.603,6.329,13.023,14.508,13.023c8.175,0,14.509-4.326,14.509-13.55
	C151.81,29.674,146.257,24.433,137.25,24.433z M137.301,44.331c-2.582,0-4.381-2.068-4.381-6.821c0-2.837,1.026-6.348,4.478-6.348
	c2.627-0.147,4.284,2.643,4.284,6.348C141.682,42.263,140.024,44.331,137.301,44.331z M183.064,46.639V34.86
	c0-6.002-0.73-10.427-12.805-10.427c-10.076,0-13.921,3.127-13.921,8.46h9.738c0.243-2.165,2.139-2.453,3.553-2.453
	c1.071,0,3.308,0.241,3.308,2.068c0,4.709-18.161-0.483-18.161,10.956c0,5.241,4.286,7.595,9.107,7.595
	c3.8,0,6.721-0.771,9.591-3.416l0.488,2.695h10.471v-0.484C183.113,48.801,183.064,48.081,183.064,46.639z M168.459,45.387
	c-1.998,0-3.216-0.859-3.216-2.112c0-3.269,4.387-2.5,7.694-4.084C173.187,42.649,172.015,45.387,168.459,45.387z M197.866,30.248
	h-0.096v-5.092h-9.204v25.183H198.7v-8.701c0-5.431,2.088-7.352,6.227-7.352c0.685,0,1.416,0.19,2.096,0.289v-9.997
	c-0.437-0.049-0.878-0.145-1.315-0.145C201.762,24.433,199.282,26.306,197.866,30.248z M226.777,27.703
	c-2.14-2.5-4.381-3.27-7.597-3.27c-6.079,0-10.807,5.432-10.807,13.796c0,7.106,3.895,12.83,11.587,12.83
	c3.262,0,5.458-1.01,7.841-4.086v3.365h9.103V15.738h-10.127V27.703z M222.493,43.851c-3.313,0-3.993-3.076-3.993-5.72
	c0-2.785,0.924-5.96,4.286-5.96c3.357,0,4.338,3.028,4.338,5.818C227.124,40.922,225.995,43.851,222.493,43.851z"/>
<g>
	<path fill="#8B8C8C" d="M145.812,9.617c-0.98,0-1.695-0.367-2.145-1.102h-0.041l0.018,0.492c0.016,0.289,0.023,0.605,0.023,0.949
		v2.426h-0.58V3.131h0.492l0.111,0.908h0.035c0.438-0.688,1.137-1.031,2.098-1.031c0.859,0,1.515,0.282,1.966,0.847
		s0.677,1.386,0.677,2.464c0,1.047-0.237,1.858-0.712,2.435S146.632,9.617,145.812,9.617z M145.8,9.102
		c0.652,0,1.157-0.242,1.515-0.727s0.536-1.162,0.536-2.033c0-1.871-0.676-2.807-2.027-2.807c-0.742,0-1.287,0.204-1.635,0.612
		s-0.521,1.073-0.521,1.995V6.33c0,0.996,0.167,1.707,0.501,2.133S145.046,9.102,145.8,9.102z"/>
	<path fill="#8B8C8C" d="M154.097,9.5l-0.146-1.008h-0.047c-0.32,0.41-0.649,0.7-0.987,0.87s-0.737,0.255-1.198,0.255
		c-0.625,0-1.111-0.16-1.459-0.48s-0.521-0.764-0.521-1.33c0-0.621,0.259-1.104,0.776-1.447s1.267-0.525,2.247-0.545l1.213-0.035
		V5.357c0-0.605-0.123-1.063-0.369-1.371s-0.643-0.463-1.189-0.463c-0.59,0-1.201,0.164-1.834,0.492l-0.217-0.504
		c0.699-0.328,1.391-0.492,2.074-0.492c0.699,0,1.222,0.182,1.567,0.545s0.519,0.93,0.519,1.699V9.5H154.097z M151.753,9.09
		c0.68,0,1.216-0.194,1.608-0.583s0.589-0.929,0.589-1.62V6.26l-1.113,0.047c-0.895,0.043-1.532,0.183-1.913,0.419
		s-0.571,0.604-0.571,1.104c0,0.398,0.122,0.708,0.366,0.929S151.308,9.09,151.753,9.09z"/>
	<path fill="#8B8C8C" d="M159.095,3.008c0.27,0,0.559,0.027,0.867,0.082l-0.111,0.557c-0.266-0.066-0.541-0.1-0.826-0.1
		c-0.543,0-0.988,0.23-1.336,0.691s-0.521,1.043-0.521,1.746V9.5h-0.58V3.131h0.492l0.059,1.148h0.041
		c0.262-0.469,0.541-0.798,0.838-0.987S158.673,3.008,159.095,3.008z"/>
	<path fill="#8B8C8C" d="M162.938,9.102c0.367,0,0.688-0.031,0.961-0.094v0.469c-0.281,0.094-0.605,0.141-0.973,0.141
		c-0.563,0-0.978-0.15-1.245-0.451s-0.401-0.773-0.401-1.418V3.635h-0.943v-0.34l0.943-0.264l0.293-1.441h0.299v1.541h1.869v0.504
		h-1.869v4.031c0,0.488,0.086,0.85,0.258,1.084S162.571,9.102,162.938,9.102z"/>
	<path fill="#8B8C8C" d="M173.661,6.307c0,1.039-0.252,1.851-0.756,2.435s-1.199,0.876-2.086,0.876
		c-0.559,0-1.051-0.135-1.477-0.404s-0.752-0.656-0.979-1.16s-0.34-1.086-0.34-1.746c0-1.039,0.252-1.849,0.756-2.429
		s1.195-0.87,2.074-0.87c0.875,0,1.562,0.294,2.06,0.882S173.661,5.283,173.661,6.307z M168.634,6.307
		c0,0.875,0.192,1.558,0.577,2.048s0.929,0.735,1.632,0.735s1.247-0.245,1.632-0.735s0.577-1.173,0.577-2.048
		c0-0.879-0.194-1.561-0.583-2.045s-0.935-0.727-1.638-0.727s-1.245,0.241-1.626,0.724S168.634,5.424,168.634,6.307z"/>
	<path fill="#8B8C8C" d="M177.792,3.635h-1.5V9.5h-0.58V3.635h-1.184v-0.34l1.184-0.217V2.586c0-0.781,0.144-1.354,0.431-1.72
		s0.757-0.548,1.409-0.548c0.352,0,0.703,0.053,1.055,0.158l-0.135,0.504c-0.313-0.098-0.623-0.146-0.932-0.146
		c-0.453,0-0.774,0.134-0.964,0.401s-0.284,0.702-0.284,1.304v0.592h1.5V3.635z"/>
	<path fill="#555555" d="M181.255,12.02c-0.41,0-0.768-0.043-1.072-0.129v-1.512c0.313,0.078,0.598,0.117,0.855,0.117
		c0.398,0,0.684-0.124,0.855-0.372s0.258-0.636,0.258-1.163V0.934h1.816v8.016c0,1-0.229,1.762-0.686,2.285
		S182.149,12.02,181.255,12.02z"/>
	<path fill="#555555" d="M189.763,2.322c-0.684,0-1.213,0.257-1.588,0.771s-0.563,1.229-0.563,2.147c0,1.91,0.717,2.865,2.15,2.865
		c0.602,0,1.33-0.15,2.186-0.451v1.523c-0.703,0.293-1.488,0.439-2.355,0.439c-1.246,0-2.199-0.378-2.859-1.134
		s-0.99-1.841-0.99-3.255c0-0.891,0.162-1.671,0.486-2.341s0.79-1.184,1.397-1.541s1.319-0.536,2.136-0.536
		c0.832,0,1.668,0.201,2.508,0.604l-0.586,1.477c-0.32-0.152-0.643-0.285-0.967-0.398S190.075,2.322,189.763,2.322z"/>
	<path fill="#555555" d="M200.878,5.135c0,1.41-0.401,2.49-1.204,3.24S197.712,9.5,196.196,9.5h-2.426V0.934h2.689
		c1.398,0,2.484,0.369,3.258,1.107S200.878,3.811,200.878,5.135z M198.991,5.182c0-1.84-0.813-2.76-2.438-2.76h-0.967V8h0.779
		C198.116,8,198.991,7.061,198.991,5.182z"/>
	<path fill="#555555" d="M205.478,9.617c-1.055,0-1.879-0.291-2.473-0.873s-0.891-1.406-0.891-2.473
		c0-1.098,0.274-1.946,0.823-2.546s1.308-0.899,2.276-0.899c0.926,0,1.646,0.264,2.162,0.791s0.773,1.256,0.773,2.186V6.67h-4.225
		c0.02,0.508,0.17,0.904,0.451,1.189s0.676,0.428,1.184,0.428c0.395,0,0.768-0.041,1.119-0.123s0.719-0.213,1.102-0.393v1.383
		c-0.313,0.156-0.646,0.272-1.002,0.349S205.989,9.617,205.478,9.617z M205.226,4.098c-0.379,0-0.676,0.12-0.891,0.36
		s-0.338,0.581-0.369,1.022h2.508c-0.008-0.441-0.123-0.782-0.346-1.022S205.604,4.098,205.226,4.098z"/>
	<path fill="#555555" d="M212.263,9.617c-2.039,0-3.059-1.119-3.059-3.357c0-1.113,0.277-1.964,0.832-2.552s1.35-0.882,2.385-0.882
		c0.758,0,1.438,0.148,2.039,0.445l-0.527,1.383c-0.281-0.113-0.543-0.206-0.785-0.278s-0.484-0.108-0.727-0.108
		c-0.93,0-1.395,0.66-1.395,1.98c0,1.281,0.465,1.922,1.395,1.922c0.344,0,0.662-0.046,0.955-0.138s0.586-0.235,0.879-0.431v1.529
		c-0.289,0.184-0.581,0.311-0.876,0.381S212.712,9.617,212.263,9.617z"/>
	<path fill="#555555" d="M219.933,9.5l-0.346-0.891h-0.047c-0.301,0.379-0.61,0.642-0.929,0.788s-0.733,0.22-1.245,0.22
		c-0.629,0-1.124-0.18-1.485-0.539s-0.542-0.871-0.542-1.535c0-0.695,0.243-1.208,0.729-1.538s1.22-0.513,2.2-0.548l1.137-0.035
		V5.135c0-0.664-0.34-0.996-1.02-0.996c-0.523,0-1.139,0.158-1.846,0.475l-0.592-1.207c0.754-0.395,1.59-0.592,2.508-0.592
		c0.879,0,1.553,0.191,2.021,0.574s0.703,0.965,0.703,1.746V9.5H219.933z M219.405,6.465l-0.691,0.023
		c-0.52,0.016-0.906,0.109-1.16,0.281s-0.381,0.434-0.381,0.785c0,0.504,0.289,0.756,0.867,0.756c0.414,0,0.745-0.119,0.993-0.357
		s0.372-0.555,0.372-0.949V6.465z"/>
	<path fill="#555555" d="M227.661,9.5l-0.24-0.838h-0.094c-0.191,0.305-0.463,0.54-0.814,0.706s-0.752,0.249-1.201,0.249
		c-0.77,0-1.35-0.206-1.74-0.618s-0.586-1.005-0.586-1.778V2.949h1.787v3.826c0,0.473,0.084,0.827,0.252,1.063
		s0.436,0.354,0.803,0.354c0.5,0,0.861-0.167,1.084-0.501s0.334-0.888,0.334-1.661V2.949h1.787V9.5H227.661z"/>
	<path fill="#555555" d="M232.249,6.154l-2.109-3.205h2.027l1.271,2.086l1.283-2.086h2.027l-2.133,3.205l2.232,3.346h-2.033
		l-1.377-2.244L232.056,9.5h-2.027L232.249,6.154z"/>
</g>
</svg>
